# xmcd
# 
# Track frame offsets:
#     150
#     17412
#     34972
#     54263
#     67948
#     91620
#     105316
#     123756
#     139892
#     153587
#     168878
#     186659
#     201903
#     217491
#     233878
#     251709
#     268336
#     289651
#     303541
# 
# Disc length: 4273
# 
# Revision: 4
# Processed by: cddbd v1.5.2PL0 Copyright (c) Steve Scherf et al.
# Submitted via: fre:ac v1.0.31
# 
DISCID=1510af13
DTITLE=Various Artist - Bääärenstark!!! Mallorca Hitmix 2008 - CD1
DYEAR=2008
DGENRE=Schlager
TTITLE0=Michael Wendler - Nina
TTITLE1=DJ Ötzi - I will leb'n
TTITLE2=Nik P. - Ein Stern, der deinen Namen trägt
TTITLE3=Andreas Martin - Ich fang dir den Mond
TTITLE4=Nicki - Medley
TTITLE5=Bata Illic and Eike Immel - Wie ein Liebeslied
TTITLE6=Roland Kaiser - Hit-Mix
TTITLE7=Michael Morgan - Die Frau in meinen Träumen
TTITLE8=Franziska - Sommergefühl
TTITLE9=Jörg Bausch - Großes Kino
TTITLE10=Wolfgang Petry - Die längste Single der Welt - Teil 2
TTITLE11=Achim Petry - Das wird 'ne lange Nacht
TTITLE12=Matthias Reim - Der gnadenlose Partymix
TTITLE13=Ireen Sheer - Heut' Abend hab' ich Kopfweh
TTITLE14=Münchener Freiheit - Ohne Dich (schlaf' ich heut' Nacht nicht ein)
TTITLE15=Xandra Hag - Ergib dich - ich lieb dich
TTITLE16=Howie Nuvo - Howie Nuvo Hitmix
TTITLE17=Vollker Racho - Das Rote Pferd
TTITLE18=Olaf Henning - Lasso-Mix 2007
EXTD=YEAR: 2008
EXTT0=
EXTT1=
EXTT2=
EXTT3=
EXTT4=
EXTT5=
EXTT6=
EXTT7=
EXTT8=
EXTT9=
EXTT10=
EXTT11=
EXTT12=
EXTT13=
EXTT14=
EXTT15=
EXTT16=
EXTT17=
EXTT18=
PLAYORDER=
